<?xml version="1.0" encoding="UTF-8"?><svg id="Ebene_2" xmlns="http://www.w3.org/2000/svg" viewBox="0 0 1361.72 576.79"><defs><style>.cls-1{stroke-dasharray:19.23 14.42;}.cls-1,.cls-2,.cls-3,.cls-4,.cls-5,.cls-6,.cls-7,.cls-8,.cls-9{stroke-linejoin:round;}.cls-1,.cls-5,.cls-8{fill:none;stroke:#f8aa36;stroke-width:7px;}.cls-2{fill:#f4f4f4;}.cls-2,.cls-3,.cls-4,.cls-6,.cls-7,.cls-9{stroke:#333233;stroke-width:4px;}.cls-3{fill:#f8aa36;}.cls-4{fill:#fff9ea;}.cls-5{stroke-dasharray:21.27 15.96;}.cls-10{fill:#1d1d1b;font-family:CenturyGothic-Bold, 'Century Gothic';font-size:149.04px;font-weight:700;}.cls-6{fill:#fff0ca;}.cls-7{fill:#fff;}.cls-9{fill:#fff1cf;}.cls-11{letter-spacing:.01em;}.cls-12{letter-spacing:0em;}</style></defs><g id="Ebene_1-2"><g id="Ebene_3"><line class="cls-8" x1="274.17" y1="374.15" x2="274.17" y2="384.15"/><line class="cls-1" x1="274.17" y1="398.57" x2="274.17" y2="559.58"/><line class="cls-8" x1="274.17" y1="566.79" x2="274.17" y2="576.79"/><line class="cls-8" x1="304.62" y1="356.17" x2="304.62" y2="366.17"/><line class="cls-1" x1="304.62" y1="380.59" x2="304.62" y2="541.6"/><line class="cls-8" x1="304.62" y1="548.81" x2="304.62" y2="558.81"/><line class="cls-8" x1="243.73" y1="356.17" x2="243.73" y2="366.17"/><line class="cls-1" x1="243.73" y1="380.59" x2="243.73" y2="541.6"/><line class="cls-8" x1="243.73" y1="548.81" x2="243.73" y2="558.81"/><line class="cls-8" x1="154.43" y1="356.17" x2="154.43" y2="366.17"/><line class="cls-5" x1="154.43" y1="382.13" x2="154.43" y2="485.83"/><line class="cls-8" x1="154.43" y1="493.81" x2="154.43" y2="503.81"/><line class="cls-8" x1="184.87" y1="338.2" x2="184.87" y2="348.2"/><line class="cls-5" x1="184.87" y1="364.15" x2="184.87" y2="467.86"/><line class="cls-8" x1="184.87" y1="475.84" x2="184.87" y2="485.84"/><line class="cls-8" x1="123.99" y1="338.2" x2="123.99" y2="348.2"/><line class="cls-5" x1="123.99" y1="364.15" x2="123.99" y2="467.86"/><line class="cls-8" x1="123.99" y1="475.84" x2="123.99" y2="485.84"/><line class="cls-8" x1="400.83" y1="356.17" x2="400.83" y2="366.17"/><line class="cls-5" x1="400.83" y1="382.13" x2="400.83" y2="485.83"/><line class="cls-8" x1="400.83" y1="493.81" x2="400.83" y2="503.81"/><line class="cls-8" x1="431.28" y1="338.2" x2="431.28" y2="348.2"/><line class="cls-5" x1="431.28" y1="364.15" x2="431.28" y2="467.86"/><line class="cls-8" x1="431.28" y1="475.84" x2="431.28" y2="485.84"/><line class="cls-8" x1="370.39" y1="338.2" x2="370.39" y2="348.2"/><line class="cls-5" x1="370.39" y1="364.15" x2="370.39" y2="467.86"/><line class="cls-8" x1="370.39" y1="475.84" x2="370.39" y2="485.84"/><polygon class="cls-4" points="277.63 448.77 2 289.63 277.63 130.5 553.26 289.63 277.63 448.77"/><polygon class="cls-9" points="277.63 481.43 2 322.29 2 289.63 277.63 448.77 277.63 481.43"/><polygon class="cls-6" points="553.26 322.29 277.63 481.43 277.63 448.77 553.26 289.63 553.26 322.29"/><polygon class="cls-3" points="400.83 222.8 506.59 283.86 400.83 344.92 295.08 283.86 400.83 222.8"/><polygon class="cls-3" points="154.43 224.52 260.18 285.58 154.43 346.63 48.68 285.58 154.43 224.52"/><polygon class="cls-3" points="277.63 151.2 383.38 212.26 277.63 273.32 171.88 212.26 277.63 151.2"/><polygon class="cls-7" points="367.02 162.04 279.46 212.59 279.46 103.1 367.02 52.55 367.02 162.04"/><polygon class="cls-2" points="279.46 212.59 191.9 162.04 191.9 52.55 279.46 103.1 279.46 212.59"/><polygon class="cls-7" points="279.46 2 367.02 52.55 279.46 103.1 191.9 52.55 279.46 2"/><polygon class="cls-7" points="239.78 232.91 152.22 283.47 152.22 173.98 239.78 123.42 239.78 232.91"/><polygon class="cls-2" points="152.22 283.47 64.66 232.91 64.66 123.42 152.22 173.98 152.22 283.47"/><polygon class="cls-7" points="152.22 72.87 239.78 123.42 152.22 173.98 64.66 123.42 152.22 72.87"/><polygon class="cls-7" points="490.6 229.12 403.04 279.67 403.04 170.18 490.6 119.63 490.6 229.12"/><polygon class="cls-2" points="403.04 279.67 315.48 229.12 315.48 119.63 403.04 170.18 403.04 279.67"/><polygon class="cls-7" points="403.04 69.08 490.6 119.63 403.04 170.18 315.48 119.63 403.04 69.08"/></g><text class="cls-10" transform="translate(616.81 209.17)"><tspan class="cls-12"><tspan x="0" y="0">URBAN </tspan></tspan><tspan class="cls-12"><tspan x="0" y="141">MODEL </tspan></tspan><tspan class="cls-11"><tspan x="0" y="282">PLATFORM</tspan></tspan></text></g></svg>